<svg width="96" height="32" viewBox="0 0 96 32" fill="none" xmlns="http://www.w3.org/2000/svg">
<path d="M30.3022 12.8871H28.0337L28.2504 9.99707H36.2704L36.1259 12.8871H33.8138L33.9583 22.0631H30.3022V12.8871Z" fill="white"/>
<path fill-rule="evenodd" clip-rule="evenodd" d="M43.712 19.3898L44.001 21.8463C39.3462 22.7827 37.5238 22.3332 36.7036 18.5227L36.6313 16.4275C36.8481 12.6704 38.5073 12.6674 40.8219 12.4536C43.4324 12.4507 44.0369 13.299 44.4345 15.4882C44.5255 16.5887 44.5221 17.2052 44.4345 18.306H39.8104C39.869 19.8593 40.8055 20.0351 43.712 19.3898ZM39.8104 16.6442C39.5214 14.6934 41.7612 14.9102 41.5445 16.6442H39.8104Z" fill="white"/>
<path d="M48.6253 12.4532C50.0792 12.334 50.6113 12.4982 51.4431 12.8867L51.2986 14.3317L51.1541 15.849C50.7725 15.5083 50.5287 15.4232 49.3478 15.3433C48.7146 15.4728 48.6624 15.6645 48.5542 16.0616L48.5531 16.0658V18.7391C48.5531 19.3893 48.7396 19.4609 49.0588 19.4616C49.797 19.5209 50.2092 19.5942 50.9374 19.3893L51.2986 21.7736C50.7206 22.0626 50.4316 22.1349 49.7091 22.3516H48.4086C46.3246 21.9495 45.4463 20.1841 45.3018 18.7391V17.5108V16.3548C45.5908 13.6815 46.4058 12.8615 48.6253 12.4532Z" fill="white"/>
<path d="M52.1655 9.49121V22.063H55.3446V15.7771C55.9091 15.4164 56.225 15.3255 56.7896 15.7771V22.063H60.0409V14.1876C60.0409 12.309 56.9504 11.7261 55.3446 13.465V9.49121H52.1655Z" fill="white"/>
<path d="M69.0726 9.9248H60.9082V13.0316H64.8098L61.2695 20.2568V22.1353H69.2894V19.3175H65.7491L69.0726 12.0201V9.9248Z" fill="white"/>
<path d="M82.222 12.6703H79.043V22.1353H82.4388V15.7049C82.9466 15.402 83.2314 15.3695 83.7393 15.7049V22.1353H86.9906V14.0431C86.9906 12.4536 84.2089 11.8118 82.222 13.4651V12.6703Z" fill="white"/>
<path fill-rule="evenodd" clip-rule="evenodd" d="M88.0747 13.1761C89.9592 12.6228 91.0532 12.4068 93.2045 12.5258C94.7166 12.7469 94.9166 13.2647 95.1553 14.2599C95.3365 16.2601 95.2997 17.4054 95.1553 19.462C95.329 19.8515 95.5163 19.9065 95.9501 19.8233L95.6611 22.2076C94.8071 22.3809 94.3784 22.3411 93.638 22.2076C92.8631 21.8791 92.7081 21.6668 92.6265 21.2683C92.2152 21.9105 91.7991 22.0971 90.8202 22.2076C90.3367 22.3148 90.0609 22.3538 89.5197 22.2076C88.2401 21.7642 88.1288 21.171 87.9305 20.1139L87.9302 20.1123V18.884C88.1533 16.66 90.1489 16.7803 92.1208 16.4997C92.1765 16.1618 92.1803 15.9581 92.1208 15.5604C91.858 15.393 91.6784 15.3756 91.326 15.4159C90.17 15.4941 89.5965 15.6694 88.5804 15.9939L88.0747 13.1761ZM92.1208 19.6065V18.3782C91.4 18.3877 91.1092 18.4505 90.9647 19.173C91.0004 19.6836 90.8852 19.7777 91.4705 19.9678C91.7518 19.9788 91.9009 20.0669 92.1208 19.6065Z" fill="white"/>
<path fill-rule="evenodd" clip-rule="evenodd" d="M75.0691 12.5256C77.2815 13.0398 77.5633 13.9714 77.9591 15.7046C78.0842 16.9287 78.0329 17.5498 77.9591 18.667C77.6965 21.3423 76.8089 21.6858 75.2136 22.2795C74.2176 22.4683 73.7341 22.4475 72.9738 22.2795C70.476 21.3996 70.261 20.3252 69.9392 18.378C69.8468 17.5315 69.8732 17.0569 69.9392 16.2104C70.3321 13.9913 70.8704 13.0841 72.8293 12.5256C73.7846 12.3427 74.3566 12.3936 75.0691 12.5256ZM73.2628 15.7046V19.0282C73.2628 19.9675 74.6356 20.2565 74.7078 19.0282C74.7801 17.8 74.7078 16.6439 74.7078 15.7046C74.7078 14.7654 73.2628 14.7654 73.2628 15.7046Z" fill="white"/>
<g clip-path="url(#clip0_233_893)">
<path d="M24.1018 21.9249L22.462 10.4642C22.3189 9.46467 21.8195 8.54648 21.0558 7.87874C20.2845 7.20438 19.2949 6.83301 18.2693 6.83301C16.8177 6.83301 15.4678 7.58079 14.6933 8.7993H9.43872C8.66414 7.58079 7.31434 6.83301 5.86273 6.83301C4.83707 6.83301 3.84751 7.20438 3.07621 7.87874C2.31251 8.54648 1.81308 9.46467 1.67003 10.4642L0.0301393 21.9249C0.0101149 22.0647 0 22.2064 0 22.3462C0 23.9741 1.32438 25.2985 2.95231 25.2985C4.17067 25.2985 5.28002 24.5333 5.7128 23.3944L7.15861 19.588C7.50709 19.8604 7.94501 20.0232 8.42056 20.0232C9.23093 20.0232 9.93302 19.5513 10.2669 18.868H13.8651C14.199 19.5513 14.9011 20.0232 15.7114 20.0232C16.1869 20.0232 16.6249 19.8603 16.9734 19.588L18.4193 23.3944C18.852 24.5333 19.9613 25.2985 21.1797 25.2985C22.8076 25.2985 24.132 23.9741 24.132 22.3462C24.132 22.2064 24.1218 22.0647 24.1018 21.9249ZM8.42051 19.2531C7.71273 19.2531 7.1369 18.6772 7.1369 17.9694C7.1369 17.2617 7.71273 16.6858 8.42051 16.6858C9.12829 16.6858 9.70412 17.2617 9.70412 17.9694C9.70412 18.6772 9.12829 19.2531 8.42051 19.2531ZM15.7114 19.2531C15.0037 19.2531 14.4278 18.6772 14.4278 17.9694C14.4278 17.2617 15.0037 16.6858 15.7114 16.6858C16.4192 16.6858 16.9951 17.2617 16.9951 17.9694C16.9951 18.6772 16.4192 19.2531 15.7114 19.2531ZM21.1796 24.5284C20.2791 24.5284 19.459 23.9627 19.1392 23.1208L17.5382 18.9062C17.683 18.6251 17.7652 18.3068 17.7652 17.9694C17.7652 16.837 16.8439 15.9157 15.7114 15.9157C14.579 15.9157 13.6577 16.837 13.6577 17.9694C13.6577 18.0126 13.6595 18.0553 13.6621 18.0978H10.4699C10.4725 18.0553 10.4743 18.0126 10.4743 17.9694C10.4743 16.837 9.55297 15.9157 8.42051 15.9157C7.28805 15.9157 6.36673 16.837 6.36673 17.9694C6.36673 18.3068 6.44898 18.6251 6.59372 18.9062L4.9928 23.1208C4.67292 23.9627 3.8529 24.5284 2.95231 24.5284C1.74905 24.5284 0.770169 23.5495 0.770169 22.3462C0.770169 22.2429 0.777665 22.1378 0.792606 22.034L0.863616 21.5379L4.16158 22.2258C4.18813 22.2313 4.21452 22.234 4.2406 22.234C4.41913 22.234 4.57927 22.1091 4.61716 21.9275C4.6606 21.7193 4.527 21.5153 4.3188 21.4719L0.972928 20.7739L2.08731 12.9858C2.78816 14.3605 4.21683 15.3048 5.86278 15.3048C8.19844 15.3048 10.0987 13.4046 10.0987 11.0689C10.0987 10.9426 10.0931 10.8153 10.082 10.6905C10.0632 10.4787 9.87623 10.3224 9.66433 10.341C9.45249 10.3599 9.29604 10.5469 9.31483 10.7587C9.32392 10.8608 9.32854 10.9652 9.32854 11.0689C9.32854 12.9799 7.77383 14.5346 5.86278 14.5346C3.95174 14.5346 2.39702 12.9799 2.39702 11.0689C2.39702 11.0278 2.39045 10.9882 2.37849 10.951L2.43255 10.5733C2.67485 8.88001 4.14951 7.60313 5.86283 7.60313C7.11297 7.60313 8.27099 8.28134 8.88502 9.37313C8.95321 9.4944 9.08152 9.56942 9.22066 9.56942H14.9115C15.0506 9.56942 15.1789 9.4944 15.2471 9.37313C15.8612 8.28134 17.0192 7.60313 18.2693 7.60313C19.9826 7.60313 21.4573 8.88001 21.6996 10.5733L21.7537 10.951C21.7417 10.9882 21.7351 11.0278 21.7351 11.0689C21.7351 12.9799 20.1804 14.5346 18.2694 14.5346C16.3583 14.5346 14.8036 12.9799 14.8036 11.0689C14.8036 10.9652 14.8082 10.8609 14.8173 10.7587C14.8361 10.5469 14.6797 10.3599 14.4678 10.341C14.2569 10.3224 14.069 10.4787 14.0501 10.6905C14.039 10.8152 14.0334 10.9425 14.0334 11.0689C14.0334 13.4046 15.9337 15.3048 18.2694 15.3048C19.9153 15.3048 21.344 14.3605 22.0448 12.9858L23.1592 20.7739L19.8134 21.4719C19.6052 21.5153 19.4717 21.7193 19.515 21.9275C19.5529 22.1093 19.713 22.2341 19.8916 22.2341C19.9177 22.2341 19.9441 22.2314 19.9706 22.2259L23.2685 21.5379L23.3395 22.034C23.3544 22.1378 23.362 22.2429 23.362 22.3462C23.3618 23.5494 22.3829 24.5284 21.1796 24.5284Z" fill="white"/>
<path d="M7.65987 10.6838H6.24789V9.2718C6.24789 9.05913 6.07553 8.88672 5.86281 8.88672C5.65009 8.88672 5.47772 9.05913 5.47772 9.2718V10.6838H4.06575C3.85303 10.6838 3.68066 10.8562 3.68066 11.0689C3.68066 11.2815 3.85303 11.4539 4.06575 11.4539H5.47772V12.8659C5.47772 13.0786 5.65009 13.251 5.86281 13.251C6.07553 13.251 6.24789 13.0786 6.24789 12.8659V11.4539H7.65987C7.87259 11.4539 8.04495 11.2815 8.04495 11.0689C8.04495 10.8562 7.87254 10.6838 7.65987 10.6838Z" fill="white"/>
<path d="M18.2691 13.251C19.4723 13.251 20.4512 12.2721 20.4512 11.0689C20.4512 9.8656 19.4723 8.88672 18.2691 8.88672C17.0658 8.88672 16.0869 9.8656 16.0869 11.0689C16.0869 12.2721 17.0658 13.251 18.2691 13.251ZM18.2691 9.65689C19.0476 9.65689 19.681 10.2903 19.681 11.0689C19.681 11.8475 19.0476 12.4808 18.2691 12.4808C17.4905 12.4808 16.8571 11.8475 16.8571 11.0689C16.8571 10.2903 17.4905 9.65689 18.2691 9.65689Z" fill="white"/>
<path d="M12.671 16.5576H11.4613C11.2485 16.5576 11.0762 16.73 11.0762 16.9427C11.0762 17.1554 11.2485 17.3278 11.4613 17.3278H12.671C12.8838 17.3278 13.0561 17.1554 13.0561 16.9427C13.0561 16.73 12.8837 16.5576 12.671 16.5576Z" fill="white"/>
</g>
<defs>
<clipPath id="clip0_233_893">
<rect width="24.132" height="24.132" fill="white" transform="translate(0 4)"/>
</clipPath>
</defs>
</svg>
